<svg width="25" height="25" viewBox="0 0 25 25" fill="none" xmlns="http://www.w3.org/2000/svg">
<path d="M2.5 6.28809H22.5" stroke="#00D2E1" stroke-width="1.5"/>
<path d="M10.5 16.2881H2.5V17.7881C2.5 17.7881 4 19.7881 6.5 19.7881C9 19.7881 10.5 17.7881 10.5 17.7881V16.2881Z" stroke="#00D2E1" stroke-width="1.5"/>
<path d="M22.5 16.2881H14.5V17.7881C14.5 17.7881 16 19.7881 18.5 19.7881C21 19.7881 22.5 17.7881 22.5 17.7881V16.2881Z" stroke="#00D2E1" stroke-width="1.5"/>
<path d="M12.5 6.28809V2.78809" stroke="#00D2E1" stroke-width="1.5"/>
<path d="M2.5 16.2881V15.6319L6.5 6.28809" stroke="#00D2E1" stroke-width="1.5"/>
<path d="M6.5 6.28809L10.5 15.6319V16.2881" stroke="#00D2E1" stroke-width="1.5"/>
<path d="M14.5 16.2881V15.6319L18.5 6.28809" stroke="#00D2E1" stroke-width="1.5"/>
<path d="M18.5 6.28809L22.5 15.6319V16.2881" stroke="#00D2E1" stroke-width="1.5"/>
</svg>
