<svg width="24" height="24" viewBox="0 0 24 24" fill="none" xmlns="http://www.w3.org/2000/svg">
<path d="M12 22.0003C17.5228 22.0003 22 17.5232 22 12.0003C22 6.47746 17.5228 2.00031 12 2.00031C6.47715 2.00031 2 6.47746 2 12.0003C2 17.5232 6.47715 22.0003 12 22.0003Z" stroke="#00D2E1" stroke-width="1.5"/>
<path d="M12 17.5003C14.7614 17.5003 17 15.2617 17 12.5003H7C7 15.2617 9.23858 17.5003 12 17.5003Z" stroke="#00D2E1" stroke-width="1.5"/>
<path d="M10.5 9.50031C10.5 8.39574 9.60457 7.50031 8.5 7.50031C7.39543 7.50031 6.5 8.39574 6.5 9.50031" stroke="#00D2E1" stroke-width="1.5"/>
<path d="M17.5 9.50031C17.5 8.39574 16.6046 7.50031 15.5 7.50031C14.3954 7.50031 13.5 8.39574 13.5 9.50031" stroke="#00D2E1" stroke-width="1.5"/>
</svg>
