<svg width="24" height="24" viewBox="0 0 24 24" fill="none" xmlns="http://www.w3.org/2000/svg">
<path d="M12.4805 9.81836V14.4656H18.9386C18.655 15.9602 17.804 17.2257 16.5277 18.0766L20.4222 21.0984C22.6913 19.0039 24.0004 15.9276 24.0004 12.273C24.0004 11.4221 23.9241 10.6039 23.7822 9.81849L12.4805 9.81836Z" fill="#4285F4"/>
<path d="M5.75508 14.2843L4.87672 14.9567L1.76758 17.3785C3.74212 21.2948 7.78909 24.0003 12.48 24.0003C15.7199 24.0003 18.4362 22.9312 20.4217 21.0985L16.5272 18.0767C15.4581 18.7967 14.0944 19.2331 12.48 19.2331C9.35998 19.2331 6.70915 17.1276 5.75999 14.2912L5.75508 14.2843Z" fill="#34A853"/>
<path d="M1.76765 6.62207C0.949511 8.23655 0.480469 10.0584 0.480469 12.0002C0.480469 13.942 0.949511 15.7638 1.76765 17.3783C1.76765 17.3891 5.76044 14.2801 5.76044 14.2801C5.52044 13.5601 5.37859 12.7965 5.37859 12.0001C5.37859 11.2036 5.52044 10.44 5.76044 9.72L1.76765 6.62207Z" fill="#FBBC05"/>
<path d="M12.4802 4.77842C14.2475 4.77842 15.8184 5.38932 17.0729 6.56751L20.5093 3.13119C18.4256 1.18941 15.7203 0.000244141 12.4802 0.000244141C7.78934 0.000244141 3.74212 2.69478 1.76758 6.62207L5.76025 9.72025C6.70928 6.88386 9.36023 4.77842 12.4802 4.77842Z" fill="#EA4335"/>
</svg>
