<svg width="24" height="24" viewBox="0 0 24 24" fill="none" xmlns="http://www.w3.org/2000/svg">
<path d="M14.9998 2.75024L15.9998 3.75024L16.9998 2.75024C18.1044 1.64567 19.8952 1.64567 20.9998 2.75024C22.1044 3.85481 22.1044 5.64567 20.9998 6.75024L15.9998 11.7502L10.9998 6.75024C9.89524 5.64567 9.89524 3.85481 10.9998 2.75024C12.1044 1.64567 13.8952 1.64567 14.9998 2.75024Z" stroke="#00D2E1" stroke-width="1.5"/>
<path d="M1 22.2502H11.5L21 19.2502V18.8581C21 17.4178 19.8324 16.2502 18.3921 16.2502C18.1322 16.2502 17.8737 16.2891 17.6252 16.3655L11.5 18.2502M11.5 18.2502H6.5M11.5 18.2502V15.2502L5.2093 14.2824C3.39038 14.0026 1.75 15.4099 1.75 17.2502" stroke="#00D2E1" stroke-width="1.5"/>
</svg>
