<svg width="24" height="25" viewBox="0 0 24 25" fill="none" xmlns="http://www.w3.org/2000/svg">
<path d="M17.131 2.16909C15.1171 1.85615 13.0272 2.78061 11.947 4.65153C10.9223 6.42623 11.0895 8.56198 12.2002 10.132L9.66553 14.4997L14.576 14.4999L15.8721 12.255C17.7891 12.4344 19.7254 11.5113 20.7512 9.73463C21.8296 7.86678 21.5878 5.59899 20.3153 4.01177L18.0283 7.97304L15.7502 8.29907L15.0002 6.0494L17.131 2.16909Z" stroke="#00D2E1" stroke-width="1.5"/>
<path d="M1 14.5H4.5L5.825 12.38C6.55595 11.2105 7.83783 10.5 9.21699 10.5H12" stroke="#00D2E1" stroke-width="1.5"/>
<path d="M1 22.5H13L15.8235 17.4805C16.5734 16.1473 15.61 14.5 14.0803 14.5H9.71875" stroke="#00D2E1" stroke-width="1.5"/>
</svg>
