<svg width="21" height="22" viewBox="0 0 21 22" fill="none" xmlns="http://www.w3.org/2000/svg">
<path d="M19.5 0.500244H1.45312C0.65625 0.500244 0 1.20337 0 2.04712V20.0002C0 20.844 0.65625 21.5002 1.45312 21.5002H19.5C20.2969 21.5002 21 20.844 21 20.0002V2.04712C21 1.20337 20.2969 0.500244 19.5 0.500244ZM6.32812 18.5002H3.23438V8.51587H6.32812V18.5002ZM4.78125 7.10962C3.75 7.10962 2.95312 6.31274 2.95312 5.32837C2.95312 4.34399 3.75 3.50024 4.78125 3.50024C5.76562 3.50024 6.5625 4.34399 6.5625 5.32837C6.5625 6.31274 5.76562 7.10962 4.78125 7.10962ZM18 18.5002H14.8594V13.6252C14.8594 12.5002 14.8594 11.0002 13.2656 11.0002C11.625 11.0002 11.3906 12.2659 11.3906 13.5784V18.5002H8.29688V8.51587H11.25V9.87524H11.2969C11.7188 9.07837 12.75 8.23462 14.25 8.23462C17.3906 8.23462 18 10.344 18 13.0159V18.5002Z" fill="#2C57AC"/>
</svg>
