<svg width="297" height="57" viewBox="0 0 297 57" fill="none" xmlns="http://www.w3.org/2000/svg">
<g clip-path="url(#clip0_2321_22914)">
<path d="M6.37655 10.5775C9.45648 13.9655 12.4804 17.2834 15.4974 20.6083C16.8133 22.0573 18.0873 23.5413 19.4593 24.9342C20.0822 25.5642 20.1522 25.9212 19.5013 26.6212C16.9113 29.3791 14.4124 32.2211 11.8364 35C11.2064 35.686 11.1294 36.12 11.9414 36.729C12.9704 37.5059 13.9014 38.4019 14.8464 39.2839C15.1964 39.6129 15.3644 39.6129 15.7073 39.2349C19.6063 34.909 23.5262 30.5971 27.4671 26.3132C28.0131 25.7182 27.6211 25.4592 27.2851 25.1022C23.5752 21.1123 19.8653 17.1154 16.1553 13.1255C14.3704 11.2075 12.6134 9.25457 10.7865 7.38561C10.1775 6.76263 10.4015 6.49663 10.9545 6.07664C15.1054 2.94071 19.7463 1.09275 24.8911 0.476765C37.3019 -1.0072 49.6496 6.39163 54.0385 18.1164C57.6434 27.7482 56.3134 36.778 50.3636 45.1568C49.7476 46.0248 49.4396 45.9688 48.7606 45.2128C44.7217 40.6769 40.6408 36.176 36.5319 31.6961C35.9299 31.0381 35.8669 30.6811 36.5039 29.9951C39.1148 27.1952 41.6488 24.3252 44.2457 21.5113C44.7707 20.9373 44.8967 20.5803 44.2037 20.0553C43.4757 19.5023 42.8527 18.8234 42.1738 18.2074C41.2404 17.3487 40.3281 17.4024 39.4368 18.3684C35.8739 22.2673 32.332 26.1942 28.7271 30.0581C28.0971 30.7301 28.2441 31.0451 28.7831 31.6331C34.1449 37.4429 39.4508 43.3018 44.8477 49.0767C45.6667 49.9517 45.3937 50.2667 44.6377 50.8336C31.982 60.2624 13.6494 57.1335 4.83659 44.0228C-1.86226 34.062 -1.58227 21.1893 5.55057 11.5855C5.79557 11.2565 6.06856 10.9485 6.37655 10.5775Z" fill="white"/>
<path d="M136.785 23.8016H133.257V32.7746H136.785C139.926 32.7746 141.312 30.4796 141.272 28.2116C141.231 25.9931 139.863 23.8016 136.785 23.8016ZM136.785 31.1456H134.94V25.4036H136.785C138.734 25.4036 139.553 26.8031 139.593 28.1981C139.634 29.6606 138.824 31.1456 136.785 31.1456ZM122.439 29.3636L118.043 23.8016H116.67V32.7746H118.362V26.7221L123.078 32.7881V32.7746H124.131V23.7881H122.439V29.3636ZM90.3273 23.8781V23.8016H88.4688L86.2233 27.1496L83.9778 23.8016H82.1193V23.8781L85.1433 28.2386L82.0293 32.7251V32.7746H83.9283L86.2233 29.4041L88.5183 32.7746H90.4173V32.7251L87.2898 28.2386L90.3273 23.8781ZM102.212 23.8016L98.1843 32.7746H100.016L100.785 31.0826H105.479L106.235 32.7746H108.08L104.052 23.8016H102.207H102.212ZM101.469 29.5076L103.134 25.6871L104.799 29.5076H101.465H101.469ZM153.183 23.8016L149.156 32.7746H150.987L151.757 31.0826H156.45L157.206 32.7746H159.051L155.024 23.8016H153.179H153.183ZM152.441 29.5076L154.106 25.6871L155.771 29.5076H152.436H152.441ZM260.841 32.7746H262.52V23.8016H260.841V32.7746ZM247.395 23.8016H243.872V32.7746H247.395C250.536 32.7746 251.922 30.4796 251.882 28.2116C251.841 25.9931 250.473 23.8016 247.395 23.8016ZM247.395 31.1456H245.55V25.4036H247.395C249.344 25.4036 250.163 26.8031 250.203 28.1981C250.244 29.6606 249.434 31.1456 247.395 31.1456ZM274.904 23.8016L270.876 32.7746H272.708L273.477 31.0826H278.171L278.927 32.7746H280.772L276.744 23.8016H274.899H274.904ZM274.161 29.5076L275.826 25.6871L277.491 29.5076H274.157H274.161ZM295.136 23.7881V29.3636L290.739 23.8016H289.367V32.7746H291.059V26.7221L295.775 32.7881V32.7746H296.828V23.7881H295.136ZM213.321 23.8016L209.294 32.7746H211.125L211.895 31.0826H216.588L217.344 32.7746H219.189L215.162 23.8016H213.317H213.321ZM212.579 29.5076L214.244 25.6871L215.909 29.5076H212.574H212.579ZM201.338 23.8556V23.8061H199.236L195.825 27.5996V23.8061H194.133V32.7791H195.825V28.8056L199.583 32.7791H201.671V32.6756L197.351 28.1486L201.338 23.8556ZM175.022 26.7806C175.022 25.2281 173.906 23.8196 171.791 23.8061C170.369 23.8061 168.947 23.7926 167.52 23.7926V32.7791H169.212V29.7776H170.841L173.456 32.7791H175.467V32.6621L172.749 29.5976C174.455 29.2511 175.017 28.0091 175.017 26.7761L175.022 26.7806ZM169.212 28.2566V25.3856H171.791C172.853 25.3856 173.33 26.1056 173.33 26.8211C173.33 27.5366 172.866 28.2566 171.791 28.2566H169.212ZM235.155 26.7806C235.155 25.2281 234.039 23.8196 231.924 23.8061C230.502 23.8061 229.08 23.7926 227.654 23.7926V32.7791H229.346V29.7776H230.975L233.589 32.7791H235.601V32.6621L232.883 29.5976C234.588 29.2511 235.151 28.0091 235.151 26.7761L235.155 26.7806ZM229.346 28.2566V25.3856H231.924C232.986 25.3856 233.463 26.1056 233.463 26.8211C233.463 27.5366 233 28.2566 231.924 28.2566H229.346Z" fill="white"/>
</g>
<defs>
<clipPath id="clip0_2321_22914">
<rect width="296.828" height="56" fill="white" transform="translate(0 0.288086)"/>
</clipPath>
</defs>
</svg>
