<svg width="152" height="40" viewBox="0 0 152 40" fill="none" xmlns="http://www.w3.org/2000/svg">
<path d="M4.55468 7.34961C6.75463 9.76956 8.91458 12.1395 11.0695 14.5145C12.0095 15.5494 12.9195 16.6094 13.8995 17.6044C14.3445 18.0544 14.3945 18.3094 13.9295 18.8094C12.0795 20.7793 10.2946 22.8093 8.45459 24.7942C8.0046 25.2842 7.9496 25.5942 8.52959 26.0292C9.26458 26.5842 9.92956 27.2242 10.6045 27.8542C10.8545 28.0891 10.9745 28.0891 11.2195 27.8192C14.0045 24.7292 16.8044 21.6493 19.6193 18.5894C20.0093 18.1644 19.7293 17.9794 19.4893 17.7244C16.8394 14.8744 14.1895 12.0195 11.5395 9.16957C10.2646 7.7996 9.00958 6.40463 7.70461 5.06966C7.26962 4.62467 7.42962 4.43468 7.82461 4.13468C10.7895 1.89473 14.1045 0.574761 17.7794 0.134771C26.6442 -0.925205 35.464 4.35968 38.5989 12.7345C41.1739 19.6143 40.2239 26.0642 35.974 32.0491C35.534 32.669 35.314 32.6291 34.829 32.0891C31.9441 28.8491 29.0291 25.6342 26.0942 22.4343C25.6642 21.9643 25.6192 21.7093 26.0742 21.2193C27.9392 19.2193 29.7491 17.1694 31.6041 15.1594C31.9791 14.7494 32.0691 14.4945 31.5741 14.1195C31.0541 13.7245 30.6091 13.2395 30.1241 12.7995C29.4575 12.1862 28.8058 12.2245 28.1692 12.9145C25.6242 15.6994 23.0943 18.5044 20.5193 21.2643C20.0693 21.7443 20.1743 21.9693 20.5593 22.3893C24.3892 26.5392 28.1792 30.7241 32.0341 34.849C32.6191 35.474 32.4241 35.699 31.8841 36.104C22.8443 42.8388 9.74957 40.6039 3.45471 31.2391C-1.33019 24.1242 -1.13019 14.9294 3.96469 8.06959C4.13969 7.8346 4.33469 7.6146 4.55468 7.34961Z" fill="#0A0A1E"/>
<path d="M62.513 8.6L60.413 11.648L58.325 8.6H56.585L59.501 12.728L56.465 17H58.157L60.365 13.796L62.585 17H64.325L61.277 12.704L64.205 8.6H62.513ZM70.9591 17H72.4711L73.3351 14.972H77.3071L78.1591 17H79.7191L76.0231 8.54H74.6551L70.9591 17ZM73.8751 13.664L75.3151 10.304L76.7671 13.664H73.8751ZM87.1596 17H88.6116V11.024L93.2436 17H94.4796V8.6H93.0276V14.408L88.5276 8.6H87.1596V17ZM102.64 17H105.772C108.412 17 110.236 15.164 110.236 12.8V12.776C110.236 10.412 108.412 8.6 105.772 8.6H102.64V17ZM105.772 9.944C107.536 9.944 108.688 11.156 108.688 12.8V12.824C108.688 14.468 107.536 15.656 105.772 15.656H104.116V9.944H105.772ZM116.721 17H118.233L119.097 14.972H123.069L123.921 17H125.481L121.785 8.54H120.417L116.721 17ZM119.637 13.664L121.077 10.304L122.529 13.664H119.637ZM132.921 17H134.397V14.072H136.245L138.309 17H140.061L137.793 13.82C138.957 13.484 139.785 12.656 139.785 11.276V11.252C139.785 10.52 139.533 9.896 139.089 9.44C138.549 8.912 137.721 8.6 136.665 8.6H132.921V17ZM134.397 12.764V9.944H136.545C137.637 9.944 138.285 10.436 138.285 11.336V11.36C138.285 12.212 137.613 12.764 136.557 12.764H134.397ZM57.101 31H58.577V28.564L59.885 27.22L62.753 31H64.553L60.893 26.212L64.397 22.6H62.573L58.577 26.824V22.6H57.101V31ZM70.924 31H72.436L73.3 28.972H77.272L78.124 31H79.684L75.988 22.54H74.62L70.924 31ZM73.84 27.664L75.28 24.304L76.732 27.664H73.84ZM87.1244 31H88.6004V28.072H90.4484L92.5124 31H94.2644L91.9964 27.82C93.1604 27.484 93.9884 26.656 93.9884 25.276V25.252C93.9884 24.52 93.7364 23.896 93.2924 23.44C92.7524 22.912 91.9244 22.6 90.8684 22.6H87.1244V31ZM88.6004 26.764V23.944H90.7484C91.8404 23.944 92.4884 24.436 92.4884 25.336V25.36C92.4884 26.212 91.8164 26.764 90.7604 26.764H88.6004ZM101.796 31H104.928C107.568 31 109.392 29.164 109.392 26.8V26.776C109.392 24.412 107.568 22.6 104.928 22.6H101.796V31ZM104.928 23.944C106.692 23.944 107.844 25.156 107.844 26.8V26.824C107.844 28.468 106.692 29.656 104.928 29.656H103.272V23.944H104.928ZM117.267 31H118.743V22.6H117.267V31ZM126.272 31H127.784L128.648 28.972H132.62L133.472 31H135.032L131.336 22.54H129.968L126.272 31ZM129.188 27.664L130.628 24.304L132.08 27.664H129.188ZM142.472 31H143.924V25.024L148.556 31H149.792V22.6H148.34V28.408L143.84 22.6H142.472V31Z" fill="#0A0A1E"/>
</svg>
