<svg width="25" height="25" viewBox="0 0 25 25" fill="none" xmlns="http://www.w3.org/2000/svg">
<path d="M15.4998 3.03839L16.4998 4.03839L17.4998 3.03839C18.6044 1.93382 20.3952 1.93382 21.4998 3.03839C22.6044 4.14296 22.6044 5.93382 21.4998 7.03839L16.4998 12.0384L11.4998 7.03839C10.3952 5.93382 10.3952 4.14296 11.4998 3.03839C12.6044 1.93382 14.3952 1.93382 15.4998 3.03839Z" stroke="#00D2E1" stroke-width="1.5"/>
<path d="M1.5 22.5385H12L21.5 19.5385V19.1464C21.5 17.7061 20.3324 16.5385 18.8921 16.5385C18.6322 16.5385 18.3737 16.5774 18.1252 16.6538L12 18.5385M12 18.5385H7M12 18.5385V15.5385L5.7093 14.5707C3.89038 14.2909 2.25 15.6982 2.25 17.5385" stroke="#00D2E1" stroke-width="1.5"/>
</svg>
