<svg width="33" height="32" viewBox="0 0 33 32" fill="none" xmlns="http://www.w3.org/2000/svg">
<path d="M3.64374 5.87969C5.40371 7.81565 7.13167 9.7116 8.85563 11.6116C9.60761 12.4395 10.3356 13.2875 11.1196 14.0835C11.4756 14.4435 11.5156 14.6475 11.1436 15.0475C9.66361 16.6235 8.23564 18.2474 6.76367 19.8354C6.40368 20.2274 6.35968 20.4754 6.82367 20.8234C7.41166 21.2673 7.94365 21.7793 8.48364 22.2833C8.68363 22.4713 8.77963 22.4713 8.97563 22.2553C11.2036 19.7834 13.4435 17.3194 15.6955 14.8715C16.0075 14.5315 15.7835 14.3835 15.5915 14.1795C13.4715 11.8996 11.3516 9.61561 9.23162 7.33566C8.21164 6.23968 7.20766 5.12371 6.16369 4.05573C5.8157 3.69974 5.94369 3.54774 6.25969 3.30775C8.63163 1.51579 11.2836 0.459809 14.2235 0.107817C21.3153 -0.740164 28.3712 3.48774 30.8791 10.1876C32.9391 15.6915 32.1791 20.8514 28.7792 25.6392C28.4272 26.1352 28.2512 26.1032 27.8632 25.6713C25.5553 23.0793 23.2233 20.5074 20.8754 17.9474C20.5314 17.5714 20.4954 17.3674 20.8594 16.9754C22.3513 15.3755 23.7993 13.7355 25.2833 12.1276C25.5833 11.7996 25.6553 11.5956 25.2593 11.2956C24.8433 10.9796 24.4873 10.5916 24.0993 10.2396C23.566 9.74894 23.0446 9.7796 22.5353 10.3316C20.4994 12.5595 18.4754 14.8035 16.4155 17.0114C16.0555 17.3954 16.1395 17.5754 16.4475 17.9114C19.5114 21.2313 22.5433 24.5793 25.6273 27.8792C26.0952 28.3792 25.9392 28.5592 25.5073 28.8832C18.2754 34.2711 7.79965 32.4831 2.76376 24.9913C-1.06415 19.2994 -0.904153 11.9436 3.17176 6.45568C3.31175 6.26768 3.46775 6.09168 3.64374 5.87969Z" fill="white"/>
</svg>
