<svg width="24" height="25" viewBox="0 0 24 25" fill="none" xmlns="http://www.w3.org/2000/svg">
<path d="M2 8.5V2.5H8" stroke="#00D2E1" stroke-width="1.5"/>
<path d="M16 2.5H22V8.5" stroke="#00D2E1" stroke-width="1.5"/>
<path d="M22 16.5V22.5H16" stroke="#00D2E1" stroke-width="1.5"/>
<path d="M8 22.5H2V16.5" stroke="#00D2E1" stroke-width="1.5"/>
<path d="M4.58154 12.5C5.76832 9.56817 8.64265 7.5 12 7.5C15.3574 7.5 18.2317 9.56817 19.4185 12.5C18.2317 15.4318 15.3574 17.5 12 17.5C8.64265 17.5 5.76832 15.4318 4.58154 12.5Z" stroke="#00D2E1" stroke-width="1.5"/>
<path d="M12 14.5C13.1046 14.5 14 13.6046 14 12.5C14 11.3954 13.1046 10.5 12 10.5C10.8954 10.5 10 11.3954 10 12.5C10 13.6046 10.8954 14.5 12 14.5Z" stroke="#00D2E1" stroke-width="1.5"/>
</svg>
