<svg width="338" height="398" viewBox="0 0 338 398" fill="none" xmlns="http://www.w3.org/2000/svg">
<mask id="path-1-inside-1_2524_24802" fill="white">
<path fill-rule="evenodd" clip-rule="evenodd" d="M-83.2785 0.93818L-123.031 40.8025L6.16533 170.362L-48.7312 225.412L-8.97845 265.277L85.6709 170.362L45.9182 130.497L45.9181 130.497L-83.2785 0.93818Z"/>
</mask>
<path d="M-123.031 40.8025L-123.737 40.0944L-124.443 40.8025L-123.737 41.5106L-123.031 40.8025ZM-83.2785 0.93818L-82.5724 0.230083L-83.2785 -0.478015L-83.9846 0.230083L-83.2785 0.93818ZM6.16533 170.362L6.87145 171.07L7.57756 170.362L6.87145 169.654L6.16533 170.362ZM-48.7312 225.412L-49.4373 224.704L-50.1434 225.412L-49.4373 226.12L-48.7312 225.412ZM-8.97845 265.277L-9.68457 265.985L-8.97845 266.693L-8.27234 265.985L-8.97845 265.277ZM85.6709 170.362L86.377 171.07L87.0831 170.362L86.377 169.654L85.6709 170.362ZM45.9182 130.497L46.6243 129.789L45.9182 129.081L45.2121 129.789L45.9182 130.497ZM45.9181 130.497L45.2119 131.206L45.9181 131.914L46.6242 131.206L45.9181 130.497ZM-122.325 41.5106L-82.5724 1.64628L-83.9846 0.230083L-123.737 40.0944L-122.325 41.5106ZM6.87145 169.654L-122.325 40.0944L-123.737 41.5106L5.45922 171.07L6.87145 169.654ZM-48.0251 226.12L6.87145 171.07L5.45922 169.654L-49.4373 224.704L-48.0251 226.12ZM-8.27234 264.569L-48.0251 224.704L-49.4373 226.12L-9.68457 265.985L-8.27234 264.569ZM84.9648 169.654L-9.68457 264.569L-8.27234 265.985L86.377 171.07L84.9648 169.654ZM45.2121 131.205L84.9648 171.07L86.377 169.654L46.6243 129.789L45.2121 131.205ZM46.6242 131.206L46.6243 131.205L45.2121 129.789L45.2119 129.789L46.6242 131.206ZM-83.9846 1.64628L45.2119 131.206L46.6242 129.789L-82.5724 0.230083L-83.9846 1.64628Z" fill="url(#paint0_linear_2524_24802)" mask="url(#path-1-inside-1_2524_24802)"/>
<mask id="path-3-inside-2_2524_24802" fill="white">
<path fill-rule="evenodd" clip-rule="evenodd" d="M243.29 397.11L283.043 357.246L153.55 227.389L208.507 172.278L168.754 132.413L74.1047 227.328L74.4016 227.626L74.3412 227.687L243.29 397.11Z"/>
</mask>
<path d="M283.043 357.246L283.749 357.954L284.455 357.246L283.749 356.538L283.043 357.246ZM243.29 397.11L242.584 397.818L243.29 398.526L243.996 397.818L243.29 397.11ZM153.55 227.389L152.844 226.681L152.137 227.389L152.844 228.097L153.55 227.389ZM208.507 172.278L209.213 172.986L209.919 172.278L209.213 171.57L208.507 172.278ZM168.754 132.413L169.46 131.705L168.754 130.997L168.048 131.705L168.754 132.413ZM74.1047 227.328L73.3986 226.62L72.6924 227.328L73.3986 228.037L74.1047 227.328ZM74.4016 227.626L75.1077 228.334L75.8138 227.626L75.1077 226.918L74.4016 227.626ZM74.3412 227.687L73.6351 226.979L72.929 227.687L73.6351 228.395L74.3412 227.687ZM282.337 356.538L242.584 396.402L243.996 397.818L283.749 357.954L282.337 356.538ZM152.844 228.097L282.337 357.954L283.749 356.538L154.256 226.681L152.844 228.097ZM207.801 171.57L152.844 226.681L154.256 228.097L209.213 172.986L207.801 171.57ZM168.048 133.122L207.801 172.986L209.213 171.57L169.46 131.705L168.048 133.122ZM74.8108 228.037L169.46 133.122L168.048 131.705L73.3986 226.62L74.8108 228.037ZM75.1077 226.918L74.8108 226.62L73.3986 228.037L73.6955 228.334L75.1077 226.918ZM75.0473 228.395L75.1077 228.334L73.6955 226.918L73.6351 226.979L75.0473 228.395ZM243.996 396.402L75.0473 226.979L73.6351 228.395L242.584 397.818L243.996 396.402Z" fill="url(#paint1_linear_2524_24802)" mask="url(#path-3-inside-2_2524_24802)"/>
<defs>
<linearGradient id="paint0_linear_2524_24802" x1="-130.603" y1="48.3956" x2="38.8197" y2="217.344" gradientUnits="userSpaceOnUse">
<stop stop-color="#00F0FF" stop-opacity="0"/>
<stop offset="1" stop-color="#00F0FF"/>
</linearGradient>
<linearGradient id="paint1_linear_2524_24802" x1="290.614" y1="349.653" x2="121.191" y2="180.704" gradientUnits="userSpaceOnUse">
<stop stop-color="#00F0FF" stop-opacity="0"/>
<stop offset="1" stop-color="#00F0FF"/>
</linearGradient>
</defs>
</svg>
