<svg width="24" height="25" viewBox="0 0 24 25" fill="none" xmlns="http://www.w3.org/2000/svg">
<path d="M18 13.1008C18 9.51098 15.0899 6.60083 11.5 6.60083" stroke="#00D2E1" stroke-width="1.5"/>
<path d="M22 13.1008C22 7.30184 17.299 2.60083 11.5 2.60083" stroke="#00D2E1" stroke-width="1.5"/>
<path d="M3.87239 15.16C2.71624 13.1224 2.07518 10.8718 1.94922 8.59791L5.96597 8.1167L7.38018 13.0665L3.87239 15.16ZM3.87239 15.16C4.52432 16.309 5.34003 17.3903 6.31952 18.3698C7.29901 19.3492 8.38026 20.165 9.52924 20.8169M9.52924 20.8169C11.5668 21.973 13.8175 22.6141 16.0913 22.7401L16.5725 18.7233L11.6228 17.3091L9.52924 20.8169Z" stroke="#00D2E1" stroke-width="1.5"/>
</svg>
