<svg width="32" height="32" viewBox="0 0 32 32" fill="none" xmlns="http://www.w3.org/2000/svg">
<path d="M22.8417 2.22545C20.1565 1.8082 17.3699 3.04081 15.9297 5.53537C14.5634 7.90164 14.7863 10.7493 16.2673 12.8427L12.8877 18.6663L19.435 18.6665L21.1631 15.6733C23.7191 15.9125 26.3009 14.6817 27.6686 12.3128C29.1065 9.82237 28.7841 6.79865 27.0874 4.68236L24.0381 9.96405L21.0006 10.3988L20.0006 7.3992L22.8417 2.22545Z" stroke="#00D2E1" stroke-width="1.5"/>
<path d="M1.33301 18.6667H5.99967L7.76634 15.84C8.74094 14.2807 10.4501 13.3334 12.289 13.3334H15.9997" stroke="#00D2E1" stroke-width="1.5"/>
<path d="M1.33301 29.3333H17.333L21.0977 22.6406C22.0975 20.863 20.813 18.6666 18.7734 18.6666H12.958" stroke="#00D2E1" stroke-width="1.5"/>
</svg>
