<svg width="516" height="316" viewBox="0 0 516 316" fill="none" xmlns="http://www.w3.org/2000/svg">
<mask id="path-1-inside-1_2415_24839" fill="white">
<path fill-rule="evenodd" clip-rule="evenodd" d="M94.6492 -80.9999L54.8965 -41.1356L184.093 88.4237L129.197 143.474L168.949 183.339L263.599 88.4236L223.846 48.5592L223.846 48.5594L94.6492 -80.9999Z"/>
</mask>
<path d="M54.8965 -41.1356L54.1904 -41.8437L53.4843 -41.1356L54.1904 -40.4275L54.8965 -41.1356ZM94.6492 -80.9999L95.3553 -81.708L94.6492 -82.4161L93.9431 -81.708L94.6492 -80.9999ZM184.093 88.4237L184.799 89.1318L185.505 88.4237L184.799 87.7156L184.093 88.4237ZM129.197 143.474L128.49 142.766L127.784 143.474L128.49 144.182L129.197 143.474ZM168.949 183.339L168.243 184.047L168.949 184.755L169.655 184.047L168.949 183.339ZM263.599 88.4236L264.305 89.1317L265.011 88.4236L264.305 87.7155L263.599 88.4236ZM223.846 48.5592L224.552 47.8511L223.846 47.143L223.14 47.8511L223.846 48.5592ZM223.846 48.5594L223.14 49.2675L223.846 49.9756L224.552 49.2675L223.846 48.5594ZM55.6026 -40.4275L95.3553 -80.2918L93.9431 -81.708L54.1904 -41.8437L55.6026 -40.4275ZM184.799 87.7156L55.6026 -41.8437L54.1904 -40.4275L183.387 89.1318L184.799 87.7156ZM129.903 144.182L184.799 89.1318L183.387 87.7156L128.49 142.766L129.903 144.182ZM169.655 182.63L129.903 142.766L128.49 144.182L168.243 184.047L169.655 182.63ZM262.893 87.7155L168.243 182.63L169.655 184.047L264.305 89.1317L262.893 87.7155ZM223.14 49.2673L262.893 89.1317L264.305 87.7155L224.552 47.8511L223.14 49.2673ZM224.552 49.2675L224.552 49.2673L223.14 47.8511L223.14 47.8513L224.552 49.2675ZM93.9431 -80.2918L223.14 49.2675L224.552 47.8513L95.3553 -81.708L93.9431 -80.2918Z" fill="url(#paint0_linear_2415_24839)" mask="url(#path-1-inside-1_2415_24839)"/>
<mask id="path-3-inside-2_2415_24839" fill="white">
<path fill-rule="evenodd" clip-rule="evenodd" d="M421.217 315.172L460.97 275.308L331.477 145.451L386.435 90.3396L346.682 50.4753L252.033 145.39L252.329 145.688L252.268 145.749L421.217 315.172Z"/>
</mask>
<path d="M460.97 275.308L461.676 276.016L462.382 275.308L461.676 274.6L460.97 275.308ZM421.217 315.172L420.511 315.88L421.217 316.588L421.924 315.88L421.217 315.172ZM331.477 145.451L330.771 144.743L330.065 145.451L330.771 146.16L331.477 145.451ZM386.435 90.3396L387.141 91.0477L387.847 90.3396L387.141 89.6315L386.435 90.3396ZM346.682 50.4753L347.388 49.7672L346.682 49.0591L345.976 49.7672L346.682 50.4753ZM252.033 145.39L251.327 144.682L250.621 145.39L251.327 146.098L252.033 145.39ZM252.329 145.688L253.035 146.396L253.742 145.688L253.035 144.98L252.329 145.688ZM252.268 145.749L251.562 145.041L250.856 145.749L251.562 146.457L252.268 145.749ZM460.264 274.6L420.511 314.464L421.924 315.88L461.676 276.016L460.264 274.6ZM330.771 146.16L460.264 276.016L461.676 274.6L332.184 144.743L330.771 146.16ZM385.729 89.6315L330.771 144.743L332.184 146.16L387.141 91.0477L385.729 89.6315ZM345.976 51.1834L385.729 91.0477L387.141 89.6315L347.388 49.7672L345.976 51.1834ZM252.739 146.098L347.388 51.1834L345.976 49.7672L251.327 144.682L252.739 146.098ZM253.035 144.98L252.739 144.682L251.327 146.098L251.623 146.396L253.035 144.98ZM252.975 146.457L253.035 146.396L251.623 144.98L251.562 145.041L252.975 146.457ZM421.924 314.464L252.975 145.041L251.562 146.457L420.511 315.88L421.924 314.464Z" fill="url(#paint1_linear_2415_24839)" mask="url(#path-3-inside-2_2415_24839)"/>
<defs>
<linearGradient id="paint0_linear_2415_24839" x1="47.3247" y1="-33.5425" x2="216.747" y2="135.406" gradientUnits="userSpaceOnUse">
<stop stop-color="#00F0FF" stop-opacity="0"/>
<stop offset="1" stop-color="#00F0FF"/>
</linearGradient>
<linearGradient id="paint1_linear_2415_24839" x1="468.542" y1="267.715" x2="299.119" y2="98.766" gradientUnits="userSpaceOnUse">
<stop stop-color="#00F0FF" stop-opacity="0"/>
<stop offset="1" stop-color="#00F0FF"/>
</linearGradient>
</defs>
</svg>
