<svg width="292" height="225" viewBox="0 0 292 225" fill="none" xmlns="http://www.w3.org/2000/svg">
<mask id="path-1-inside-1_3482_24757" fill="white">
<path fill-rule="evenodd" clip-rule="evenodd" d="M53.5755 5.8427e-06L31.074 22.5647L104.205 95.9007L73.131 127.062L95.6325 149.626L149.208 95.9009L149.207 95.9002L149.207 95.9L53.5755 5.8427e-06Z"/>
</mask>
<path d="M31.074 22.5647L30.3679 21.8566L29.6618 22.5647L30.3679 23.2728L31.074 22.5647ZM53.5755 5.8427e-06L54.2816 -0.708091L53.5755 -1.41619L52.8694 -0.708091L53.5755 5.8427e-06ZM104.205 95.9007L104.911 96.6088L105.617 95.9007L104.911 95.1926L104.205 95.9007ZM73.131 127.062L72.4248 126.354L71.7187 127.062L72.4248 127.77L73.131 127.062ZM95.6325 149.626L94.9264 150.334L95.6325 151.043L96.3386 150.334L95.6325 149.626ZM149.208 95.9009L149.914 96.609L150.62 95.9009L149.914 95.1928L149.208 95.9009ZM149.207 95.9002L148.501 95.1921L147.795 95.9002L148.501 96.6083L149.207 95.9002ZM149.207 95.9L149.913 96.6081L150.619 95.9L149.913 95.1919L149.207 95.9ZM31.7801 23.2728L54.2816 0.708103L52.8694 -0.708091L30.3679 21.8566L31.7801 23.2728ZM104.911 95.1926L31.7801 21.8566L30.3679 23.2728L103.499 96.6088L104.911 95.1926ZM73.8371 127.77L104.911 96.6088L103.499 95.1926L72.4248 126.354L73.8371 127.77ZM96.3386 148.918L73.8371 126.354L72.4248 127.77L94.9264 150.334L96.3386 148.918ZM148.501 95.1928L94.9264 148.918L96.3386 150.334L149.914 96.609L148.501 95.1928ZM148.501 96.6083L148.501 96.609L149.914 95.1928L149.913 95.1921L148.501 96.6083ZM148.501 95.1919L148.501 95.1921L149.913 96.6083L149.913 96.6081L148.501 95.1919ZM52.8694 0.708103L148.501 96.6081L149.913 95.1919L54.2816 -0.708091L52.8694 0.708103Z" fill="url(#paint0_linear_3482_24757)" mask="url(#path-1-inside-1_3482_24757)"/>
<mask id="path-3-inside-2_3482_24757" fill="white">
<path fill-rule="evenodd" clip-rule="evenodd" d="M238.426 224.25L260.928 201.685L187.797 128.349L218.871 97.1879L196.369 74.6231L142.794 128.349L142.795 128.349L142.795 128.35L238.426 224.25Z"/>
</mask>
<path d="M260.928 201.685L261.634 202.393L262.34 201.685L261.634 200.977L260.928 201.685ZM238.426 224.25L237.72 224.958L238.426 225.666L239.132 224.958L238.426 224.25ZM187.797 128.349L187.091 127.641L186.385 128.349L187.091 129.057L187.797 128.349ZM218.871 97.1879L219.577 97.896L220.283 97.1879L219.577 96.4798L218.871 97.1879ZM196.369 74.6231L197.076 73.915L196.369 73.2069L195.663 73.915L196.369 74.6231ZM142.794 128.349L142.088 127.641L141.382 128.349L142.088 129.057L142.794 128.349ZM142.795 128.349L143.501 129.057L144.207 128.349L143.501 127.641L142.795 128.349ZM142.795 128.35L142.089 127.641L141.382 128.35L142.089 129.058L142.795 128.35ZM260.222 200.977L237.72 223.541L239.132 224.958L261.634 202.393L260.222 200.977ZM187.091 129.057L260.222 202.393L261.634 200.977L188.503 127.641L187.091 129.057ZM218.165 96.4798L187.091 127.641L188.503 129.057L219.577 97.896L218.165 96.4798ZM195.663 75.3312L218.165 97.896L219.577 96.4798L197.076 73.915L195.663 75.3312ZM143.5 129.057L197.076 75.3312L195.663 73.915L142.088 127.641L143.5 129.057ZM143.501 127.641L143.5 127.641L142.088 129.057L142.089 129.057L143.501 127.641ZM143.501 129.058L143.501 129.057L142.089 127.641L142.089 127.641L143.501 129.058ZM239.132 223.541L143.501 127.641L142.089 129.058L237.72 224.958L239.132 223.541Z" fill="url(#paint1_linear_3482_24757)" mask="url(#path-3-inside-2_3482_24757)"/>
<defs>
<linearGradient id="paint0_linear_3482_24757" x1="26.7878" y1="26.863" x2="122.688" y2="122.495" gradientUnits="userSpaceOnUse">
<stop stop-color="#00F0FF" stop-opacity="0"/>
<stop offset="1" stop-color="#00F0FF"/>
</linearGradient>
<linearGradient id="paint1_linear_3482_24757" x1="265.214" y1="197.387" x2="169.314" y2="101.755" gradientUnits="userSpaceOnUse">
<stop stop-color="#00F0FF" stop-opacity="0"/>
<stop offset="1" stop-color="#00F0FF"/>
</linearGradient>
</defs>
</svg>
